<svg width="14" height="14" viewBox="0 0 14 14" fill="none" xmlns="http://www.w3.org/2000/svg">
<path d="M6.33398 6.3335V3.6665H7.66698V6.3335H10.334V7.6665H7.66698V10.3335H6.33398V7.6665H3.66698V6.3335H6.33398ZM7.00048 13.6665C3.31848 13.6665 0.333984 10.682 0.333984 7C0.333984 3.318 3.31848 0.333496 7.00048 0.333496C10.6825 0.333496 13.667 3.318 13.667 7C13.667 10.682 10.6825 13.6665 7.00048 13.6665ZM7.00048 12.3335C8.41502 12.3335 9.77161 11.7716 10.7718 10.7713C11.7721 9.77112 12.334 8.41453 12.334 7C12.334 5.58546 11.7721 4.22887 10.7718 3.22864C9.77161 2.22842 8.41502 1.6665 7.00048 1.6665C5.58595 1.6665 4.22936 2.22842 3.22913 3.22864C2.2289 4.22887 1.66698 5.58546 1.66698 7C1.66698 8.41453 2.2289 9.77112 3.22913 10.7713C4.22936 11.7716 5.58595 12.3335 7.00048 12.3335Z" fill="currentColor"/>
</svg>
