<svg width="28" height="28" viewBox="0 0 28 28" fill="none" xmlns="http://www.w3.org/2000/svg">
<path d="M14.0088 0.666504C16.1658 0.666504 18.3146 1.19859 20.2238 2.20521C26.7241 5.63501 29.224 13.7138 25.7965 20.2163C23.4587 24.6504 18.8559 27.3332 13.9936 27.3332C13.0437 27.3332 12.0843 27.231 11.1297 27.0196C10.5919 26.8997 10.2526 26.3665 10.3712 25.8285C10.4898 25.2906 11.0217 24.9535 11.563 25.0697C16.5286 26.1739 21.6552 23.7906 24.0305 19.2849C26.9449 13.7573 24.8196 6.88712 19.2927 3.97179C17.67 3.11552 15.8429 2.6633 14.0077 2.6633C7.74688 2.6633 2.66264 7.74809 2.66264 13.9981C2.66029 15.8187 3.10414 17.6311 3.94603 19.2414L4.202 19.7418C4.51551 20.3291 4.58479 21.0585 4.38166 21.7186C4.10102 22.4586 3.86736 23.1787 3.67479 23.8952C4.42393 23.6696 5.33862 23.3372 5.99969 23.0964L6.27093 22.9989C6.78405 22.8075 7.36058 23.0788 7.54845 23.598C7.73632 24.116 7.46743 24.6892 6.94961 24.8759L6.68189 24.9734C5.69323 25.3317 4.34056 25.8238 3.42704 26.0282C3.34954 26.0446 3.26618 26.0552 3.18985 26.0529C2.57693 26.0529 2.20353 25.805 1.99805 25.596C1.68219 25.2753 1.5319 24.8254 1.54951 24.2593C1.55186 24.1947 1.56008 24.1277 1.57534 24.0631C1.81253 23.053 2.12134 22.0452 2.49473 21.0691C2.52174 20.974 2.5053 20.8013 2.42898 20.6568L2.17183 20.1576C1.18669 18.2712 0.664171 16.137 0.666512 13.9969C0.666512 6.64633 6.64549 0.666504 13.9936 0.666504H14.0088ZM13.994 12.4125C14.8688 12.4125 15.5792 13.1243 15.5792 13.9982C15.5792 14.8721 14.8688 15.5839 13.994 15.5839C13.1193 15.5839 12.4089 14.8721 12.4089 13.9982C12.4089 13.1243 13.1193 12.4125 13.994 12.4125ZM19.865 12.4125C20.7398 12.4125 21.4501 13.1243 21.4501 13.9982C21.4501 14.8721 20.7398 15.5839 19.865 15.5839C18.9902 15.5839 18.2798 14.8721 18.2798 13.9982C18.2798 13.1243 18.9902 12.4125 19.865 12.4125ZM8.12298 12.413C8.99775 12.413 9.70813 13.1236 9.70813 13.9987C9.70813 14.8726 8.99775 15.5832 8.12298 15.5832C7.24821 15.5832 6.53782 14.8726 6.53782 13.9987C6.53782 13.1236 7.24821 12.413 8.12298 12.413Z" fill="#71B488"/>
</svg>
