<svg width="28" height="28" viewBox="0 0 28 28" fill="none" xmlns="http://www.w3.org/2000/svg">
<path d="M18.5993 3.04024C18.546 3.37357 18.5193 3.7069 18.5193 4.04024C18.5193 7.04024 20.946 9.46557 23.9327 9.46557C24.266 9.46557 24.586 9.4269 24.9193 9.37357V20.1322C24.9193 24.6536 22.2527 27.3336 17.7193 27.3336H7.86735C3.33268 27.3336 0.666016 24.6536 0.666016 20.1322V10.2669C0.666016 5.73357 3.33268 3.04024 7.86735 3.04024H18.5993ZM18.8673 11.1469C18.506 11.1069 18.1473 11.2669 17.9327 11.5602L14.7073 15.7336L11.0127 12.8269C10.786 12.6536 10.5193 12.5856 10.2527 12.6136C9.98735 12.6536 9.74735 12.7989 9.58601 13.0122L5.64068 18.1469L5.55935 18.2669C5.33268 18.6922 5.43935 19.2389 5.83935 19.5336C6.02601 19.6536 6.22602 19.7336 6.45268 19.7336C6.76068 19.7469 7.05268 19.5856 7.23935 19.3336L10.586 15.0256L14.386 17.8802L14.506 17.9589C14.9327 18.1856 15.466 18.0802 15.7727 17.6789L19.626 12.7069L19.5727 12.7336C19.786 12.4402 19.826 12.0669 19.6793 11.7336C19.534 11.4002 19.2127 11.1736 18.8673 11.1469ZM24.1195 0.666504C25.8928 0.666504 27.3328 2.1065 27.3328 3.87984C27.3328 5.65317 25.8928 7.09317 24.1195 7.09317C22.3461 7.09317 20.9061 5.65317 20.9061 3.87984C20.9061 2.1065 22.3461 0.666504 24.1195 0.666504Z" fill="#095D37"/>
</svg>
