<svg width="28" height="28" viewBox="0 0 28 28" fill="none" xmlns="http://www.w3.org/2000/svg">
<path d="M20.2257 0.666992C24.7603 0.666992 27.3203 3.23899 27.3337 7.77366V20.227C27.3337 24.7603 24.7603 27.3337 20.2257 27.3337H7.77366C3.23899 27.3337 0.666992 24.7603 0.666992 20.227V7.77366C0.666992 3.23899 3.23899 0.666992 7.77366 0.666992H20.2257ZM14.667 6.17366C14.2923 5.94699 13.839 5.94699 13.4803 6.17366C13.119 6.39899 12.9203 6.81366 12.959 7.22699V20.8137C13.027 21.387 13.5057 21.8137 14.0657 21.8137C14.6403 21.8137 15.119 21.387 15.1723 20.8137V7.22699C15.2257 6.81366 15.027 6.39899 14.667 6.17366ZM8.44033 10.547C8.08033 10.3203 7.62566 10.3203 7.26699 10.547C6.90566 10.7737 6.70699 11.1857 6.74699 11.6003V20.8137C6.79899 21.387 7.27899 21.8137 7.85233 21.8137C8.42699 21.8137 8.90566 21.387 8.95899 20.8137V11.6003C9.00033 11.1857 8.79899 10.7737 8.44033 10.547ZM20.7857 15.387C20.427 15.1603 19.9737 15.1603 19.6003 15.387C19.239 15.6137 19.0403 16.0123 19.0937 16.4403V20.8137C19.147 21.387 19.6257 21.8137 20.2003 21.8137C20.7603 21.8137 21.239 21.387 21.307 20.8137V16.4403C21.3457 16.0123 21.147 15.6137 20.7857 15.387Z" fill="currentColor"/>
</svg>
