<svg width="20" height="20" viewBox="0 0 20 20" fill="none" xmlns="http://www.w3.org/2000/svg">
<path d="M8.8 3.09945V2.37277C8.8 1.93095 8.44185 1.57275 7.99999 1.57275H0.800012C0.358152 1.57275 0 1.93091 0 2.37277V7.08127H20V4.4328C20 3.99098 19.6418 3.63279 19.2 3.63279H9.33334C9.03879 3.63279 8.8 3.39401 8.8 3.09945Z" fill="#1548BF"/>
<path d="M18.9333 18.4272H1.06668C0.477564 18.4272 0 17.9496 0 17.3605V6.891H8.82986C9.05484 6.891 9.26945 6.79627 9.42102 6.63001L10.4039 5.55201C10.5554 5.38574 10.7701 5.29102 10.995 5.29102H20V17.3605C20 17.9496 19.5224 18.4272 18.9333 18.4272Z" fill="#5C7FD3"/>
</svg>
