<svg width="32" height="32" viewBox="0 0 32 32" fill="none" xmlns="http://www.w3.org/2000/svg">
<path d="M8 0C6.9 0 6 0.9 6 2V30C6 31.1 6.9 32 8 32H28C29.1 32 30 31.1 30 30V8L22 0H8Z" fill="#E2E5E7"/>
<path d="M24 8H30L22 0V6C22 7.1 22.9 8 24 8Z" fill="#B0B7BD"/>
<path d="M30 14L24 8H30V14Z" fill="#CAD1D8"/>
<path d="M26 26C26 26.55 25.55 27 25 27H3C2.45 27 2 26.55 2 26V16C2 15.45 2.45 15 3 15H25C25.55 15 26 15.45 26 16V26Z" fill="#50BEE8"/>
<path d="M8.87282 18.9471C8.87282 18.2751 9.92882 18.2751 9.92882 18.9471V22.1051C9.92882 23.3611 9.32882 24.1211 7.94582 24.1211C7.26582 24.1211 6.69882 23.9361 6.20282 23.2971C5.79482 22.8091 6.56282 22.1061 6.97882 22.6171C7.31482 23.0331 7.67482 23.1291 8.02582 23.1131C8.47282 23.0971 8.86582 22.8961 8.87382 22.1051V18.9471H8.87282Z" fill="white"/>
<path d="M11.334 18.947C11.334 18.683 11.542 18.395 11.878 18.395H13.725C14.765 18.395 15.701 19.091 15.701 20.425C15.701 21.689 14.765 22.393 13.725 22.393H12.39V23.449C12.39 23.801 12.166 24 11.878 24C11.614 24 11.334 23.801 11.334 23.449V18.947ZM12.39 19.402V21.394H13.725C14.261 21.394 14.685 20.921 14.685 20.425C14.685 19.866 14.261 19.402 13.725 19.402H12.39Z" fill="white"/>
<path d="M21.4112 23.3849C20.8432 23.8569 20.1472 24.0569 19.4442 24.0569C17.7642 24.0569 16.5732 23.0979 16.5732 21.1939C16.5732 19.5799 17.8292 18.325 19.5152 18.325C20.1472 18.325 20.8422 18.54 21.3382 19.0279C21.8252 19.5069 21.1222 20.2189 20.6432 19.7959C20.3472 19.5079 19.9312 19.2919 19.5152 19.2919C18.5482 19.2919 17.6132 20.0669 17.6132 21.1939C17.6132 22.3779 18.3962 23.0979 19.4442 23.0979C19.9312 23.0979 20.3472 22.9529 20.6432 22.7379V21.7549H19.4442C18.7322 21.7549 18.8042 20.7789 19.4442 20.7789H21.0432C21.3392 20.7789 21.6102 21.0029 21.6102 21.2509V22.9539C21.6102 23.0979 21.5472 23.2319 21.4112 23.3849Z" fill="white"/>
<path d="M25 27H6V28H25C25.55 28 26 27.55 26 27V26C26 26.55 25.55 27 25 27Z" fill="#CAD1D8"/>
</svg>
