<svg width="20" height="20" viewBox="0 0 20 20" fill="none" xmlns="http://www.w3.org/2000/svg">
<path d="M10.0001 5.625C10.5898 5.62438 11.1734 5.74345 11.7157 5.975L12.3063 1.2375C10.7949 0.8375 9.20533 0.8375 7.69385 1.2375L8.2876 5.97344C8.82907 5.74295 9.4116 5.62442 10.0001 5.625Z" fill="#ED1C24"/>
<path d="M8.28748 5.97324L7.69404 1.2373C7.36922 1.32061 7.04986 1.42393 6.73779 1.54668C5.55761 2.00058 4.48581 2.6971 3.5917 3.59121C2.69759 4.48532 2.00107 5.55712 1.54717 6.7373C1.42442 7.04937 1.3211 7.36873 1.23779 7.69355L5.97373 8.2873C6.41798 7.24662 7.24686 6.41763 8.28748 5.97324Z" fill="#D1E7F8"/>
<path d="M5.97529 11.7156L1.23779 12.3062C1.3211 12.631 1.42442 12.9504 1.54717 13.2625C2.00107 14.4426 2.69759 15.5144 3.5917 16.4085C4.48581 17.3027 5.55761 17.9992 6.73779 18.4531C7.04986 18.5758 7.36922 18.6791 7.69404 18.7625L8.28779 14.0265C7.24818 13.5827 6.41985 12.7549 5.97529 11.7156Z" fill="#D1E7F8"/>
<path d="M10.0001 14.3749C9.41149 14.3755 8.82886 14.257 8.28728 14.0265L7.69385 18.7624C9.20533 19.1624 10.7949 19.1624 12.3063 18.7624L11.7157 14.0249C11.1734 14.2564 10.5898 14.3755 10.0001 14.3749Z" fill="#D51920"/>
<path d="M5.625 10.0001C5.62438 9.41149 5.74291 8.82886 5.97344 8.28728L1.2375 7.69385C0.8375 9.20533 0.8375 10.7949 1.2375 12.3063L5.975 11.7157C5.74345 11.1734 5.62438 10.5898 5.625 10.0001Z" fill="#ED1C24"/>
<path d="M11.7158 14.025L12.3064 18.7625C12.6313 18.6791 12.9506 18.5758 13.2627 18.4531C14.4429 17.9992 15.5147 17.3027 16.4088 16.4085C17.3029 15.5144 17.9994 14.4426 18.4533 13.2625C18.5761 12.9504 18.6794 12.631 18.7627 12.3062L14.0252 11.7156C13.5813 12.7539 12.7541 13.581 11.7158 14.025Z" fill="#D1E7F8"/>
<path d="M13.2627 1.54668C12.9506 1.42393 12.6313 1.32061 12.3064 1.2373L11.7158 5.9748C12.7551 6.41936 13.5829 7.24769 14.0268 8.2873L18.7627 7.69355C18.6794 7.36873 18.5761 7.04937 18.4533 6.7373C17.9994 5.55712 17.3029 4.48532 16.4088 3.59121C15.5147 2.6971 14.4429 2.00058 13.2627 1.54668Z" fill="#D1E7F8"/>
<path d="M14.3749 10.0001C14.3755 10.5898 14.2564 11.1734 14.0249 11.7157L18.7624 12.3063C19.1624 10.7949 19.1624 9.20533 18.7624 7.69385L14.0265 8.2876C14.257 8.82907 14.3755 9.4116 14.3749 10.0001Z" fill="#D51920"/>
<path d="M10.0005 5.62478C10.5902 5.62416 11.1738 5.74323 11.7161 5.97478L11.7955 5.33728C10.6419 4.8879 9.36162 4.8879 8.20801 5.33728L8.2877 5.97415C8.82921 5.7433 9.41184 5.62445 10.0005 5.62478Z" fill="#C0161D"/>
<path d="M8.28803 5.9733L8.20834 5.33643C7.55595 5.58811 6.96346 5.97358 6.46901 6.46804C5.97456 6.96249 5.58909 7.55497 5.3374 8.20736L5.97428 8.28705C6.41859 7.24649 7.24746 6.41762 8.28803 5.9733Z" fill="#9BC9FF"/>
<path d="M5.97539 11.7156L5.33789 11.795C5.58965 12.4469 5.97507 13.0389 6.46935 13.5329C6.96363 14.0269 7.55584 14.412 8.20789 14.6634L8.28758 14.0265C7.24808 13.5826 6.41988 12.7548 5.97539 11.7156Z" fill="#9BC9FF"/>
<path d="M10.0005 14.3749C9.41191 14.3756 8.82927 14.257 8.2877 14.0265L8.20801 14.6634C9.36162 15.1128 10.6419 15.1128 11.7955 14.6634L11.7161 14.0259C11.1738 14.2571 10.5901 14.3759 10.0005 14.3749Z" fill="#C0161D"/>
<path d="M5.62547 9.99978C5.62485 9.41118 5.74338 8.82854 5.97391 8.28696L5.33703 8.20728C4.88766 9.36089 4.88766 10.6412 5.33703 11.7948L5.97453 11.7154C5.74331 11.173 5.62456 10.5894 5.62547 9.99978Z" fill="#C0161D"/>
<path d="M11.7158 14.025L11.7952 14.6624C12.4466 14.4108 13.0383 14.0257 13.5321 13.5319C14.0259 13.038 14.411 12.4464 14.6627 11.795L14.0252 11.7156C13.5813 12.7539 12.7541 13.581 11.7158 14.025Z" fill="#9BC9FF"/>
<path d="M11.7952 5.3374L11.7158 5.9749C12.7551 6.41946 13.5829 7.24779 14.0268 8.2874L14.6636 8.20771C14.4123 7.55561 14.0272 6.96334 13.5332 6.469C13.0392 5.97466 12.4471 5.5892 11.7952 5.3374Z" fill="#9BC9FF"/>
<path d="M14.3749 9.99978C14.3755 10.5894 14.2564 11.1731 14.0249 11.7154L14.6624 11.7948C15.1118 10.6412 15.1118 9.36089 14.6624 8.20728L14.0255 8.28696C14.2564 8.82847 14.3752 9.41111 14.3749 9.99978Z" fill="#C0161D"/>
</svg>
