<svg width="84" height="60" viewBox="0 0 84 60" fill="none" xmlns="http://www.w3.org/2000/svg">
<path d="M43.9896 0H84.0002L75.987 11.989H55.9818L52.0028 20H67.9739L60.016 31.989H23.9844L43.9896 0Z" fill="#128239"/>
<path d="M50.2895 31.9888L44.4316 43.591C43.05 46.2982 40.3421 47.9557 37.3026 47.9557H18.2368L26.25 31.9336H50.2895V31.9888Z" fill="#128239"/>
<path d="M60.0158 0L41.3368 31.9889L31.9974 48.011H4.47632C1.98947 48.011 0 46.0221 0 43.5359V12.0442C0 0 11.9921 0 11.9921 0H60.0158Z" fill="#128239"/>
<path d="M19.4526 59.9999C26.0756 59.9999 31.4447 54.6322 31.4447 48.0109C31.4447 41.3896 26.0756 36.022 19.4526 36.022C12.8295 36.022 7.46045 41.3896 7.46045 48.0109C7.46045 54.6322 12.8295 59.9999 19.4526 59.9999Z" fill="white"/>
<path d="M19.4526 56.0221C23.8782 56.0221 27.4658 52.4354 27.4658 48.011C27.4658 43.5867 23.8782 40 19.4526 40C15.0271 40 11.4395 43.5867 11.4395 48.011C11.4395 52.4354 15.0271 56.0221 19.4526 56.0221Z" fill="#128239"/>
<path d="M31.5 0V23.3702C31.5 26.0221 29.3447 28.1768 26.6921 28.1768H0V11.989C0 0 11.9921 0 11.9921 0H31.5Z" fill="#0D6F39"/>
</svg>
