<svg width="32" height="32" viewBox="0 0 32 32" fill="none" xmlns="http://www.w3.org/2000/svg">
<path d="M8 0C6.9 0 6 0.9 6 2V30C6 31.1 6.9 32 8 32H28C29.1 32 30 31.1 30 30V8L22 0H8Z" fill="#E2E5E7"/>
<path d="M24 8H30L22 0V6C22 7.1 22.9 8 24 8Z" fill="#B0B7BD"/>
<path d="M30 14L24 8H30V14Z" fill="#CAD1D8"/>
<path d="M26 26C26 26.55 25.55 27 25 27H3C2.45 27 2 26.55 2 26V16C2 15.45 2.45 15 3 15H25C25.55 15 26 15.45 26 16V26Z" fill="#F15642"/>
<path d="M6.35938 18.947C6.35938 18.683 6.56737 18.395 6.90237 18.395H8.74937C9.78937 18.395 10.7254 19.091 10.7254 20.425C10.7254 21.689 9.78937 22.393 8.74937 22.393H7.41437V23.449C7.41437 23.801 7.19037 24 6.90237 24C6.63837 24 6.35938 23.801 6.35938 23.449V18.947ZM7.41437 19.402V21.394H8.74937C9.28537 21.394 9.70937 20.921 9.70937 20.425C9.70937 19.866 9.28537 19.402 8.74937 19.402H7.41437Z" fill="white"/>
<path d="M12.2913 24C12.0273 24 11.7393 23.856 11.7393 23.505V18.963C11.7393 18.676 12.0273 18.467 12.2913 18.467H14.1223C17.7763 18.467 17.6963 24 14.1943 24H12.2913ZM12.7953 19.443V23.025H14.1223C16.2813 23.025 16.3773 19.443 14.1223 19.443H12.7953Z" fill="white"/>
<path d="M18.9923 19.5071V20.7781H21.0313C21.3193 20.7781 21.6073 21.0661 21.6073 21.3451C21.6073 21.6091 21.3193 21.8251 21.0313 21.8251H18.9923V23.5041C18.9923 23.7841 18.7933 23.9991 18.5133 23.9991C18.1613 23.9991 17.9463 23.7841 17.9463 23.5041V18.9621C17.9463 18.6751 18.1623 18.4661 18.5133 18.4661H21.3203C21.6723 18.4661 21.8803 18.6751 21.8803 18.9621C21.8803 19.2181 21.6723 19.5061 21.3203 19.5061H18.9923V19.5071Z" fill="white"/>
<path d="M25 27H6V28H25C25.55 28 26 27.55 26 27V26C26 26.55 25.55 27 25 27Z" fill="#CAD1D8"/>
</svg>
