<svg width="24" height="28" viewBox="0 0 24 28" fill="none" xmlns="http://www.w3.org/2000/svg">
<path d="M17.588 0.666504C21.7067 0.666504 24 3.03984 24 7.1065V20.8798C24 25.0132 21.7067 27.3332 17.588 27.3332H6.41333C2.36 27.3332 0 25.0132 0 20.8798V7.1065C0 3.03984 2.36 0.666504 6.41333 0.666504H17.588ZM6.77333 18.9865C6.37333 18.9465 5.98667 19.1332 5.77333 19.4798C5.56 19.8132 5.56 20.2532 5.77333 20.5998C5.98667 20.9332 6.37333 21.1332 6.77333 21.0798H17.2267C17.7587 21.0265 18.16 20.5718 18.16 20.0398C18.16 19.4932 17.7587 19.0398 17.2267 18.9865H6.77333ZM17.2267 12.9052H6.77333C6.19867 12.9052 5.73333 13.3732 5.73333 13.9465C5.73333 14.5198 6.19867 14.9865 6.77333 14.9865H17.2267C17.8 14.9865 18.2667 14.5198 18.2667 13.9465C18.2667 13.3732 17.8 12.9052 17.2267 12.9052ZM10.7587 6.8665H6.77333V6.87984C6.19867 6.87984 5.73333 7.3465 5.73333 7.91984C5.73333 8.49317 6.19867 8.95984 6.77333 8.95984H10.7587C11.3333 8.95984 11.8 8.49317 11.8 7.90517C11.8 7.33317 11.3333 6.8665 10.7587 6.8665Z" fill="currentColor"/>
</svg>
