<svg width="20" height="20" viewBox="0 0 20 20" fill="none" xmlns="http://www.w3.org/2000/svg">
<g clip-path="url(#clip0)">
<path d="M8.9159 20C8.33383 20 7.8602 19.5264 7.8602 18.9443V18.4504C7.8602 18.1483 7.66605 17.8798 7.37719 17.7825C7.02879 17.665 6.68488 17.5225 6.35504 17.3587C6.25617 17.3096 6.14602 17.2837 6.03641 17.2837C5.84832 17.2837 5.67191 17.3566 5.53965 17.4888L5.19016 17.8383C4.99078 18.0377 4.72566 18.1475 4.44367 18.1475C4.16164 18.1475 3.89652 18.0377 3.69715 17.8383L2.16273 16.3038C1.96332 16.1045 1.85348 15.8393 1.85348 15.5573C1.85348 15.2754 1.96328 15.0103 2.16273 14.8109L2.51223 14.4614C2.72598 14.2476 2.77828 13.92 2.64223 13.646C2.47852 13.3162 2.33598 12.9723 2.21855 12.6239C2.12117 12.335 1.85273 12.1409 1.55059 12.1409H1.05668C0.474609 12.1408 0.000976562 11.6672 0.000976562 11.0851V8.915C0.000976562 8.33289 0.474609 7.8593 1.05668 7.8593H1.55055C1.85266 7.8593 2.12113 7.66516 2.21852 7.37629C2.33594 7.02781 2.47848 6.68391 2.64219 6.35418C2.77824 6.08023 2.72594 5.75254 2.51219 5.53879L2.1627 5.18926C1.96328 4.98988 1.85344 4.72477 1.85344 4.44277C1.85344 4.16078 1.96324 3.89566 2.1627 3.69625L3.69707 2.16172C3.89645 1.9623 4.16156 1.85246 4.44359 1.85246C4.72555 1.85246 4.9907 1.9623 5.19008 2.16168L5.53957 2.51121C5.67184 2.64344 5.84824 2.71629 6.03633 2.71629C6.1459 2.71629 6.25609 2.69031 6.35496 2.64125C6.68484 2.47754 7.02871 2.33496 7.37711 2.2175C7.66602 2.12012 7.86012 1.85172 7.86012 1.54957V1.0557C7.8602 0.473594 8.33383 0 8.9159 0H11.086C11.668 0 12.1417 0.473594 12.1417 1.0557V1.54961C12.1417 1.85172 12.3358 2.12016 12.6247 2.21754C12.9731 2.335 13.317 2.47754 13.6468 2.64129C13.7457 2.69039 13.8559 2.71633 13.9655 2.71633C14.1536 2.71629 14.33 2.64344 14.4622 2.51121L14.8117 2.16172C15.0111 1.9623 15.2762 1.85246 15.5582 1.85246C15.8402 1.85246 16.1053 1.9623 16.3047 2.16168L17.8391 3.69617C18.0386 3.89555 18.1484 4.16066 18.1484 4.44266C18.1484 4.72461 18.0386 4.98977 17.8391 5.18914L17.4896 5.53863C17.2759 5.75238 17.2236 6.08004 17.3596 6.35402C17.5234 6.68379 17.6659 7.0277 17.7833 7.37613C17.8807 7.66504 18.1491 7.85914 18.4513 7.85914H18.9452C19.5272 7.85914 20.0009 8.33273 20.0009 8.91484V11.0849C20.0009 11.667 19.5272 12.1406 18.9452 12.1406H18.4513C18.1492 12.1406 17.8807 12.3348 17.7834 12.6236C17.6659 12.9721 17.5234 13.316 17.3597 13.6457C17.2236 13.9197 17.2759 14.2474 17.4897 14.4611L17.8392 14.8107C18.0386 15.01 18.1484 15.2752 18.1484 15.5571C18.1484 15.8391 18.0386 16.1043 17.8392 16.3037L16.3048 17.8381C16.1054 18.0375 15.8403 18.1474 15.5583 18.1474C15.2762 18.1474 15.0111 18.0375 14.8118 17.8382L14.4623 17.4886C14.33 17.3564 14.1536 17.2836 13.9655 17.2836C13.8559 17.2836 13.7457 17.3095 13.6469 17.3586C13.317 17.5223 12.9731 17.6649 12.6247 17.7823C12.3358 17.8797 12.1417 18.1481 12.1417 18.4503V18.9442C12.1417 19.5263 11.6681 19.9999 11.086 19.9999L8.9159 20ZM10.001 6.77422C9.22855 6.77422 8.43895 7.05039 7.71742 7.57285C7.66223 7.61285 7.61387 7.66117 7.57383 7.71648C6.69363 8.93199 6.53031 10.2981 7.12582 11.4646C7.68043 12.5509 8.78215 13.2259 10.001 13.2259C10.7734 13.2259 11.563 12.9497 12.2845 12.4272C12.3397 12.3872 12.3881 12.3389 12.4281 12.2836C13.3083 11.0681 13.4716 9.70195 12.8761 8.53551C12.3215 7.4491 11.2198 6.77422 10.001 6.77422Z" fill="url(#paint0_linear)"/>
<path d="M19.8244 11.0851V8.91505C19.8244 8.42919 19.4305 8.03528 18.9446 8.03528H18.4507C18.0716 8.03528 17.7371 7.79173 17.6161 7.43251C17.5 7.0881 17.3612 6.75419 17.2015 6.43243C17.0326 6.09228 17.0962 5.68294 17.3647 5.41438L17.7143 5.06485C18.0579 4.72126 18.0579 4.16423 17.7143 3.82067L16.1798 2.28618C15.8362 1.94259 15.2792 1.94259 14.9356 2.28618L14.5861 2.63571C14.3175 2.90427 13.9082 2.96778 13.568 2.79896C13.2463 2.63923 12.9124 2.50044 12.5679 2.38438C12.2087 2.26329 11.9652 1.92884 11.9652 1.54978V1.05579C11.9652 0.569932 11.5713 0.176025 11.0854 0.176025H8.91533C8.42947 0.176025 8.03557 0.569893 8.03557 1.05579V1.5497C8.03557 1.9288 7.79201 2.26325 7.43279 2.38431C7.08838 2.5004 6.75447 2.63919 6.43271 2.79888C6.09256 2.96774 5.68322 2.90415 5.41467 2.63563L5.06514 2.2861C4.72154 1.94251 4.16451 1.94251 3.82096 2.2861L2.28643 3.82067C1.94283 4.16427 1.94283 4.7213 2.28643 5.06485L2.63596 5.41438C2.90451 5.68294 2.96803 6.09228 2.7992 6.43243C2.63947 6.75419 2.50068 7.0881 2.38463 7.43251C2.26354 7.79177 1.92908 8.03528 1.55002 8.03528H1.05604C0.570176 8.03528 0.17627 8.42915 0.17627 8.91505V11.0851C0.17627 11.571 0.570137 11.9649 1.05604 11.9649H1.54994C1.92904 11.9649 2.2635 12.2084 2.38455 12.5677C2.50064 12.9121 2.63943 13.246 2.79912 13.5677C2.96799 13.9079 2.90439 14.3172 2.63588 14.5858L2.28635 14.9353C1.94275 15.2789 1.94275 15.8359 2.28635 16.1795L3.82084 17.714C4.16443 18.0576 4.72146 18.0576 5.06502 17.714L5.41455 17.3645C5.6831 17.0959 6.09244 17.0324 6.4326 17.2012C6.75436 17.3609 7.08826 17.4997 7.43268 17.6158C7.79193 17.7369 8.03545 18.0713 8.03545 18.4504V18.9443C8.03545 19.4302 8.42932 19.8241 8.91521 19.8241H11.0853C11.5712 19.8241 11.9651 19.4302 11.9651 18.9443V18.4504C11.9651 18.0713 12.2086 17.7368 12.5678 17.6158C12.9122 17.4997 13.2462 17.3609 13.5679 17.2012C13.9081 17.0324 14.3174 17.0959 14.586 17.3645L14.9355 17.714C15.2791 18.0576 15.8361 18.0576 16.1797 17.714L17.7142 16.1795C18.0578 15.8359 18.0578 15.2789 17.7142 14.9353L17.3646 14.5858C17.0961 14.3172 17.0326 13.9079 17.2014 13.5677C17.3611 13.246 17.4999 12.9121 17.616 12.5677C17.7371 12.2084 18.0715 11.9649 18.4506 11.9649H18.9445C19.4305 11.9649 19.8244 11.571 19.8244 11.0851ZM12.3871 12.5697C8.80826 15.1613 4.83904 11.1921 7.43064 7.61333C7.48143 7.54317 7.54338 7.48122 7.61357 7.4304C11.1924 4.8388 15.1616 8.80802 12.57 12.3868C12.5192 12.457 12.4572 12.519 12.3871 12.5697Z" fill="url(#paint1_linear)"/>
<path d="M19.8173 11.1921C19.8143 11.1892 19.8115 11.1861 19.8084 11.1833C19.7477 11.1199 19.6855 11.0577 19.6221 10.997C19.5614 10.9336 19.4992 10.8714 19.4358 10.8107C19.3751 10.7473 19.3129 10.6851 19.2496 10.6244C19.1888 10.561 19.1267 10.4988 19.0633 10.4381C19.0025 10.3747 18.9404 10.3125 18.877 10.2518C18.8162 10.1884 18.7541 10.1263 18.6907 10.0655C18.6299 10.0021 18.5678 9.93997 18.5044 9.87923C18.4437 9.81583 18.3815 9.75368 18.3181 9.69294C18.2574 9.62954 18.1952 9.56739 18.1318 9.50665C18.0711 9.44325 18.0089 9.3811 17.9455 9.32036C17.8848 9.25696 17.8226 9.19481 17.7592 9.13407C17.6985 9.07067 17.6363 9.00853 17.5729 8.94778C17.5122 8.88438 17.4501 8.82224 17.3867 8.76149C17.3259 8.6981 17.2638 8.63595 17.2004 8.5752C17.1396 8.51181 17.0775 8.44966 17.0141 8.38892C16.9533 8.32552 16.8912 8.26337 16.8278 8.20263C16.767 8.13923 16.7049 8.07708 16.6415 8.01634C16.5808 7.95294 16.5186 7.89079 16.4552 7.83005C16.3945 7.76665 16.3323 7.7045 16.2689 7.64376C16.2082 7.58036 16.146 7.51821 16.0826 7.45747C16.0219 7.39407 15.9597 7.33192 15.8963 7.27118C15.8356 7.20778 15.7735 7.14564 15.7101 7.08489C15.6493 7.02149 15.5872 6.95935 15.5238 6.8986C15.463 6.8352 15.4009 6.77306 15.3375 6.71231C15.2767 6.64892 15.2146 6.58677 15.1512 6.52603C15.0904 6.46263 15.0283 6.40048 14.9649 6.33974C14.9042 6.27634 14.842 6.21419 14.7786 6.15345C14.7179 6.09005 14.6557 6.0279 14.5923 5.96716C14.5316 5.90376 14.4694 5.84161 14.406 5.78087C13.2954 4.62149 11.7323 3.89966 10.0006 3.89966C6.63197 3.89966 3.90088 6.63075 3.90088 9.99939C3.90088 11.7311 4.62271 13.2942 5.78174 14.4045C5.84248 14.4679 5.90463 14.53 5.96803 14.5908C6.02877 14.6542 6.09092 14.7163 6.15432 14.7771C6.21506 14.8405 6.27721 14.9026 6.34061 14.9634C6.40135 15.0268 6.4635 15.0889 6.52689 15.1497C6.58764 15.2131 6.64979 15.2752 6.71318 15.3359C6.77393 15.3993 6.83607 15.4615 6.89947 15.5222C6.96021 15.5856 7.02236 15.6478 7.08576 15.7085C7.1465 15.7719 7.20865 15.8341 7.27205 15.8948C7.33279 15.9582 7.39494 16.0204 7.45834 16.0811C7.51908 16.1445 7.58123 16.2067 7.64463 16.2674C7.70537 16.3308 7.76752 16.3929 7.83092 16.4537C7.89166 16.5171 7.95381 16.5792 8.01721 16.64C8.07795 16.7034 8.1401 16.7655 8.2035 16.8263C8.26424 16.8897 8.32639 16.9518 8.38979 17.0125C8.45053 17.0759 8.51268 17.1381 8.57607 17.1988C8.63682 17.2622 8.69897 17.3244 8.76236 17.3851C8.82311 17.4485 8.88525 17.5107 8.94865 17.5714C9.00939 17.6348 9.07154 17.697 9.13494 17.7577C9.19568 17.8211 9.25783 17.8833 9.32123 17.944C9.38197 18.0074 9.44412 18.0695 9.50752 18.1303C9.56826 18.1937 9.63041 18.2558 9.69381 18.3166C9.75455 18.38 9.8167 18.4421 9.8801 18.5029C9.94084 18.5663 10.003 18.6284 10.0664 18.6891C10.1271 18.7525 10.1893 18.8147 10.2527 18.8754C10.3134 18.9388 10.3756 19.001 10.439 19.0617C10.4997 19.1251 10.5619 19.1873 10.6253 19.248C10.686 19.3114 10.7481 19.3736 10.8115 19.4343C10.8723 19.4977 10.9344 19.5599 10.9978 19.6206C11.0586 19.684 11.1207 19.7461 11.1841 19.8069C11.187 19.8099 11.1901 19.8127 11.1929 19.8158C11.6279 19.7625 11.9649 19.3926 11.9649 18.9433V18.4493C11.9649 18.0702 12.2085 17.7358 12.5677 17.6147C12.9121 17.4986 13.246 17.3598 13.5678 17.2001C13.9079 17.0313 14.3173 17.0949 14.5858 17.3634L14.9354 17.7129C15.279 18.0565 15.836 18.0565 16.1796 17.7129L17.714 16.1784C18.0576 15.8348 18.0576 15.2778 17.714 14.9342L17.3645 14.5847C17.096 14.3161 17.0324 13.9068 17.2013 13.5667C17.361 13.2449 17.4998 12.911 17.6158 12.5666C17.7369 12.2073 18.0714 11.9638 18.4505 11.9638H18.9444C19.3941 11.9641 19.764 11.627 19.8173 11.1921ZM12.5702 12.3861C12.5194 12.4562 12.4574 12.5182 12.3872 12.569C8.80846 15.1606 4.83924 11.1914 7.43084 7.61259C7.48162 7.54243 7.54357 7.48048 7.61377 7.42966C11.1926 4.83806 15.1618 8.80728 12.5702 12.3861Z" fill="url(#paint2_linear)"/>
<path d="M10.0006 16.0991C13.3692 16.0991 16.1003 13.368 16.1003 9.99939C16.1003 6.63075 13.3692 3.89966 10.0006 3.89966C6.63201 3.89966 3.90088 6.63075 3.90088 9.99939C3.90088 13.368 6.63197 16.0991 10.0006 16.0991ZM10.0006 5.78767C12.3265 5.78767 14.2123 7.67349 14.2123 9.99939C14.2123 12.3253 12.3265 14.2111 10.0006 14.2111C7.67471 14.2111 5.78889 12.3252 5.78889 9.99939C5.78889 7.67353 7.67471 5.78767 10.0006 5.78767Z" fill="url(#paint3_linear)"/>
<path d="M9.99969 4.19043C6.79148 4.19043 4.19043 6.79145 4.19043 9.99969C4.19043 13.2079 6.79148 15.8089 9.99969 15.8089C13.2079 15.8089 15.8089 13.2079 15.8089 9.99969C15.8089 6.79148 13.2079 4.19043 9.99969 4.19043ZM9.99969 12.977C8.35551 12.977 7.02242 11.6439 7.02242 9.99969C7.02242 8.35551 8.35551 7.02242 9.99969 7.02242C11.6439 7.02242 12.977 8.35551 12.977 9.99969C12.977 11.6439 11.6438 12.977 9.99969 12.977Z" fill="url(#paint4_linear)"/>
<path d="M16.0536 10.7469C16.0156 10.7084 15.9769 10.6706 15.9373 10.6337C15.8734 10.5649 15.8069 10.4985 15.7381 10.4346C15.6742 10.3657 15.6078 10.2993 15.539 10.2354C15.4751 10.1666 15.4087 10.1002 15.3398 10.0363C15.2759 9.96745 15.2095 9.90104 15.1406 9.83709C15.0767 9.76827 15.0103 9.70186 14.9415 9.63795C14.8776 9.56913 14.8112 9.50272 14.7423 9.43881C14.6784 9.36999 14.612 9.30358 14.5431 9.23967C14.4792 9.17085 14.4128 9.1044 14.344 9.04049C14.2801 8.97167 14.2137 8.90526 14.1448 8.84135C14.0809 8.77253 14.0145 8.70612 13.9456 8.64221C13.8817 8.57339 13.8153 8.50694 13.7465 8.44303C13.6826 8.37421 13.6161 8.30776 13.5473 8.24385C13.4834 8.17503 13.417 8.10862 13.3481 8.04471C13.2843 7.97589 13.2179 7.90948 13.149 7.84557C13.0851 7.77675 13.0187 7.71034 12.9498 7.64643C12.886 7.57761 12.8196 7.5112 12.7507 7.44725C12.0652 6.70858 11.0864 6.24585 9.99928 6.24585C7.92627 6.24585 6.24561 7.92651 6.24561 9.99952C6.24561 11.0867 6.70834 12.0654 7.44701 12.7509C7.51088 12.8197 7.57729 12.8862 7.64619 12.9501C7.71006 13.0189 7.77647 13.0853 7.84533 13.1492C7.9092 13.2181 7.97561 13.2845 8.04447 13.3484C8.10834 13.4172 8.17475 13.4836 8.24361 13.5475C8.30748 13.6163 8.37397 13.6828 8.44279 13.7467C8.5067 13.8155 8.57314 13.882 8.64197 13.9459C8.70584 14.0147 8.77225 14.0811 8.84111 14.145C8.90498 14.2138 8.97139 14.2803 9.04025 14.3442C9.10416 14.413 9.17061 14.4795 9.23943 14.5434C9.3033 14.6122 9.36971 14.6786 9.43857 14.7425C9.50244 14.8113 9.56885 14.8778 9.63772 14.9417C9.70158 15.0105 9.76799 15.0769 9.83686 15.1408C9.90072 15.2097 9.96713 15.2761 10.036 15.34C10.0999 15.4088 10.1663 15.4753 10.2352 15.5392C10.299 15.608 10.3655 15.6744 10.4343 15.7383C10.4982 15.8072 10.5647 15.8736 10.6335 15.9375C10.6703 15.9772 10.7082 16.0158 10.7467 16.0538C13.518 15.7152 15.715 13.5181 16.0536 10.7469ZM9.99955 12.9769C8.35537 12.9769 7.02229 11.6438 7.02229 9.99967C7.02229 8.3555 8.35537 7.02241 9.99955 7.02241C11.6437 7.02241 12.9768 8.3555 12.9768 9.99967C12.9768 11.6438 11.6437 12.9769 9.99955 12.9769Z" fill="url(#paint5_linear)"/>
<path d="M9.99973 6.42456C8.02543 6.42456 6.4248 8.02519 6.4248 9.99948C6.4248 11.9738 8.02543 13.5744 9.99973 13.5744C11.974 13.5744 13.5746 11.9738 13.5746 9.99948C13.5746 8.02519 11.974 6.42456 9.99973 6.42456ZM9.99973 11.8316C8.98793 11.8316 8.16758 11.0112 8.16758 9.99948C8.16758 8.98772 8.98797 8.16733 9.99973 8.16733C11.0115 8.16733 11.8319 8.98772 11.8319 9.99948C11.8319 11.0112 11.0115 11.8316 9.99973 11.8316Z" fill="url(#paint6_linear)"/>
<path d="M9.99977 13.7534C12.0728 13.7534 13.7535 12.0728 13.7535 9.99977C13.7535 7.92676 12.0728 6.24609 9.99977 6.24609C7.92676 6.24609 6.24609 7.92676 6.24609 9.99977C6.24609 12.0728 7.92676 13.7534 9.99977 13.7534ZM9.99977 7.40793C11.4311 7.40793 12.5916 8.56844 12.5916 9.99977C12.5916 11.4311 11.4311 12.5916 9.99977 12.5916C8.56848 12.5916 7.40793 11.4311 7.40793 9.99977C7.40793 8.56848 8.56844 7.40793 9.99977 7.40793Z" fill="url(#paint7_linear)"/>
</g>
<defs>
<linearGradient id="paint0_linear" x1="18.6819" y1="1.31898" x2="4.43646" y2="15.5643" gradientUnits="userSpaceOnUse">
<stop stop-color="#5B6A6A"/>
<stop offset="0.311" stop-color="#C2CECE" stop-opacity="0"/>
<stop offset="0.348" stop-color="#CAD5D5" stop-opacity="0.157"/>
<stop offset="0.47" stop-color="#E0E8E7" stop-opacity="0.669"/>
<stop offset="0.549" stop-color="#E8EFEE"/>
<stop offset="0.788" stop-color="#97AAAA"/>
<stop offset="0.861" stop-color="#9CAEAE" stop-opacity="0.724"/>
<stop offset="0.946" stop-color="#AAB9B9" stop-opacity="0.402"/>
<stop offset="1" stop-color="#B7C3C3" stop-opacity="0.196"/>
</linearGradient>
<linearGradient id="paint1_linear" x1="10.0006" y1="6.77337" x2="10.0006" y2="19.4942" gradientUnits="userSpaceOnUse">
<stop stop-color="#C2CECE"/>
<stop offset="1" stop-color="#97AAAA"/>
</linearGradient>
<linearGradient id="paint2_linear" x1="16.1131" y1="16.1112" x2="4.2623" y2="4.26043" gradientUnits="userSpaceOnUse">
<stop stop-color="#363F3E" stop-opacity="0"/>
<stop offset="1" stop-color="#303033"/>
</linearGradient>
<linearGradient id="paint3_linear" x1="13.0789" y1="13.077" x2="6.50578" y2="6.50391" gradientUnits="userSpaceOnUse">
<stop stop-color="#C2CECE"/>
<stop offset="0.293" stop-color="#BBC8C8"/>
<stop offset="0.72" stop-color="#A8B8B8"/>
<stop offset="1" stop-color="#97AAAA"/>
</linearGradient>
<linearGradient id="paint4_linear" x1="14.4018" y1="5.59751" x2="4.97356" y2="15.0257" gradientUnits="userSpaceOnUse">
<stop stop-color="#00A6F9"/>
<stop offset="1" stop-color="#0071E2"/>
</linearGradient>
<linearGradient id="paint5_linear" x1="15.5071" y1="15.5066" x2="10.4982" y2="10.4977" gradientUnits="userSpaceOnUse">
<stop offset="0.0001" stop-color="#008BF2" stop-opacity="0"/>
<stop offset="1" stop-color="#0046E2"/>
</linearGradient>
<linearGradient id="paint6_linear" x1="10" y1="9.13742" x2="10" y2="13.0767" gradientUnits="userSpaceOnUse">
<stop stop-color="#C2CECE"/>
<stop offset="1" stop-color="#97AAAA"/>
</linearGradient>
<linearGradient id="paint7_linear" x1="11.8943" y1="11.8936" x2="7.84916" y2="7.84849" gradientUnits="userSpaceOnUse">
<stop stop-color="#C2CECE"/>
<stop offset="0.293" stop-color="#BBC8C8"/>
<stop offset="0.72" stop-color="#A8B8B8"/>
<stop offset="1" stop-color="#97AAAA"/>
</linearGradient>
<clipPath id="clip0">
<rect width="20" height="20" fill="white"/>
</clipPath>
</defs>
</svg>
